Coordinates
version=1
nRows=7
nColumns=46
inDegrees=yes

Units are S.I. units (second, meters, Newtons, ...)
Angles are in degrees.

endheader
time	pelvis_tilt	pelvis_list	pelvis_rotation	pelvis_tx	pelvis_ty	pelvis_tz	bb_angle	bb_tx	bb_ty	bb_tz	hip_flexion_r	hip_adduction_r	hip_rotation_r	knee_angle_r	knee_angle_r_beta	ankle_angle_r	subtalar_angle_r	mtp_angle_r	crank_angle_r	hip_flexion_l	hip_adduction_l	hip_rotation_l	knee_angle_l	knee_angle_l_beta	ankle_angle_l	subtalar_angle_l	mtp_angle_l	crank_angle_l	lumbar_extension	lumbar_bending	lumbar_rotation	arm_flex_r	arm_add_r	arm_rot_r	elbow_flex_r	pro_sup_r	wrist_flex_r	wrist_dev_r	arm_flex_l	arm_add_l	arm_rot_l	elbow_flex_l	pro_sup_l	wrist_flex_l	wrist_dev_l
      5.00500000	    -25.23456925	      6.06191156	    -11.52313428	      0.40641039	      1.16634064	     -0.21402918	      0.00000000	      0.50000000	      0.00000000	      0.25000000	     57.35353136	      0.88455028	     11.34948114	     57.58555745	      1.00505758	     10.68575886	     -5.38306372	      0.00000000	      0.00000000	     41.88308382	     -3.10868987	     -2.67501598	     68.75007334	      1.19991514	    -17.91327806	     -7.14066490	      0.00000000	      0.00000000	    -57.43370278	     -5.01811729	      4.45601075	     58.21683644	    -26.75907108	     38.58814695	     77.08656487	     60.30560469	      0.00000000	      0.00000000	     55.11910977	    -20.30322802	     27.48290171	     63.65872161	     52.27054547	      0.00000000	      0.00000000
      5.01000000	    -24.89291110	      6.92831311	    -10.90842625	      0.40693370	      1.16460168	     -0.21366043	      0.00000000	      0.50000000	      0.00000000	      0.25000000	     56.02528507	     -0.31491663	     11.84153578	     55.55145495	      0.96955579	      9.68659795	     -5.52276212	      0.00000000	      0.00000000	     42.83996435	     -1.97463065	     -2.59294237	     71.30318055	      1.24447527	    -16.75538561	     -7.45837439	      0.00000000	      0.00000000	    -57.43927572	     -5.47590107	      3.57420137	     57.82316300	    -27.24100102	     38.48996854	     77.04897640	     60.29403587	      0.00000000	      0.00000000	     55.43365225	    -20.22721323	     27.67912105	     63.52705266	     52.27260127	      0.00000000	      0.00000000
      5.01500000	    -24.84599958	      7.52934991	    -10.06351727	      0.40696685	      1.16240681	     -0.21332638	      0.00000000	      0.50000000	      0.00000000	      0.25000000	     54.85337277	     -1.27081328	     12.19330725	     53.48651489	      0.93351579	      7.89512741	     -6.43314368	      0.00000000	      0.00000000	     44.25806584	     -1.01212032	     -2.15299000	     74.04901798	      1.29239917	    -15.42026753	     -7.23336365	      0.00000000	      0.00000000	    -57.15436383	     -5.90967913	      4.43531537	     55.55828774	    -30.20432608	     36.64317544	     79.58381139	     60.42291466	      0.00000000	      0.00000000	     58.18461275	    -18.96506878	     32.56187385	     60.27936034	     52.39253392	      0.00000000	      0.00000000
      5.02000000	    -24.88114526	      8.11548132	     -9.11269118	      0.40711126	      1.16011478	     -0.21285052	      0.00000000	      0.50000000	      0.00000000	      0.25000000	     53.70522853	     -2.33231649	     12.39789112	     51.45726480	      0.89809869	      6.52888364	     -7.11346299	      0.00000000	      0.00000000	     45.90582483	     -0.20826569	     -1.74359120	     76.89754676	      1.34211538	    -14.16046695	     -6.38396438	      0.00000000	      0.00000000	    -56.77191161	     -6.08618186	      3.68556500	     55.05853833	    -30.75895321	     36.55665288	     79.44762930	     60.39312188	      0.00000000	      0.00000000	     58.31104605	    -18.86538922	     32.95832512	     60.31257878	     52.45296153	      0.00000000	      0.00000000
      5.02500000	    -24.71044393	      8.91637370	     -8.33021760	      0.40760013	      1.15813940	     -0.21219313	      0.00000000	      0.50000000	      0.00000000	      0.25000000	     52.35284622	     -3.50252261	     12.90837951	     49.46528626	      0.86333211	      5.52357804	     -7.07657167	      0.00000000	      0.00000000	     47.23013606	      0.72848619	     -1.70864238	     79.53104355	      1.38807857	    -13.12823299	     -6.32558259	      0.00000000	      0.00000000	    -56.59494810	     -6.56357173	      2.72200543	     54.58218481	    -31.20318372	     36.58375643	     79.25563320	     60.37545831	      0.00000000	      0.00000000	     58.48951277	    -18.79243168	     33.17228885	     60.30956417	     52.47677829	      0.00000000	      0.00000000
      5.03000000	    -24.99657656	      9.17782896	     -7.00292029	      0.40751772	      1.15540363	     -0.21178414	      0.00000000	      0.50000000	      0.00000000	      0.25000000	     51.23621490	     -4.42720371	     12.85758454	     47.46703066	      0.82845597	      3.80136561	     -8.66313031	      0.00000000	      0.00000000	     49.27762934	      1.31516482	     -0.95068548	     82.50385773	      1.43996396	    -11.51864833	     -4.45440474	      0.00000000	      0.00000000	    -55.89201675	     -6.36192593	      2.13293423	     53.99492874	    -31.87703022	     36.65555351	     79.09052605	     60.36406876	      0.00000000	      0.00000000	     58.93939839	    -18.85338692	     34.55582484	     59.92113640	     52.58288108	      0.00000000	      0.00000000
      5.03500000	    -24.98652484	      9.84345403	     -5.80221045	      0.40771021	      1.15341843	     -0.21113147	      0.00000000	      0.50000000	      0.00000000	      0.25000000	     49.87410003	     -5.69015348	     13.14414278	     45.51676231	      0.79441737	      2.47831599	     -9.30456069	      0.00000000	      0.00000000	     50.70929662	      2.52269117	     -0.62755890	     84.84679466	      1.48085593	    -10.44505165	     -4.58233827	      0.00000000	      0.00000000	    -55.49750945	     -6.72547656	      1.79991072	     52.85841322	    -33.32312477	     36.36384398	     79.45201826	     60.33614233	      0.00000000	      0.00000000	     60.89047654	    -18.66907192	     38.90382087	     57.90781549	     52.77630835	      0.00000000	      0.00000000
